PathFileType	4	(X/Y/Z)	/Users/mathieubourgeois/Desktop/Analyse/Traitement/Sujet_01/Data/Transformed_Sujet_01_velo_100.trc
DataRate	CameraRate	NumFrames	NumMarkers	Units	OrigDataRate	OrigDataStartFrame	OrigNumFrames
120.000000	120.000000	5	35	mm	120.000000	745	1988
Frame#	Time	RFHD			LFHD			RBHD			LBHD			RSHO			LSHO			CLAV			STRN			T10			RBWT			LBWT			RFWT			LFWT			RRAD			RWRA			RWRB			RCAR			RHUM			LHUM			LRAD			LWRA			LWRB			LCAR			RKNI			RKNE			LKNI			LKNE			RANE			RANI			RTOE			RHEE			LTOE			LANI			LANE			LHEE			
		X1	Y1	Z1	X2	Y2	Z2	X3	Y3	Z3	X4	Y4	Z4	X5	Y5	Z5	X6	Y6	Z6	X7	Y7	Z7	X8	Y8	Z8	X9	Y9	Z9	X10	Y10	Z10	X11	Y11	Z11	X12	Y12	Z12	X13	Y13	Z13	X14	Y14	Z14	X15	Y15	Z15	X16	Y16	Z16	X17	Y17	Z17	X18	Y18	Z18	X19	Y19	Z19	X20	Y20	Z20	X21	Y21	Z21	X22	Y22	Z22	X23	Y23	Z23	X24	Y24	Z24	X25	Y25	Z25	X26	Y26	Z26	X27	Y27	Z27	X28	Y28	Z28	X29	Y29	Z29	X30	Y30	Z30	X31	Y31	Z31	X32	Y32	Z32	X33	Y33	Z33	X34	Y34	Z34	X35	Y35	Z35	

746	6.208333333333333	156.3242645263672	1508.265869140625	293.6823730468749	176.2901153564453	1501.086547851562	166.7065887451171	18.97699356079098	1568.796875	274.4325561523436	31.47991371154783	1562.314697265625	143.8930206298827	3.62578344345089	1389.316772460938	313.1259155273437	-12.34691905975343	1375.050537109375	96.23006439208976	20.85192489624021	1332.503784179688	216.6065521240234	-31.78866195678714	1223.08056640625	224.6747741699218	-211.9376678466797	1384.618774414062	237.697540283203	-416.0540771484376	1127.009399414062	335.1920776367186	-430.3545532226562	1121.383056640625	215.8291473388671	-240.5974426269532	1078.204223632812	371.6776123046874	-262.0599670410156	1092.83447265625	148.2821197509765	140.6504211425781	1178.076293945312	468.7048034667968	318.7630920410156	1046.29638671875	404.1689758300781	339.0686035156249	1058.615478515625	464.0130004882812	421.0867004394531	1019.412475585938	400.162353515625	97.93975830078119	1137.591430664062	436.1163940429687	94.93735504150389	1121.043212890625	63.45186233520502	145.0248870849609	1149.455810546875	31.28762245178217	321.3999328613281	1044.535278320312	143.1918029785156	344.0629577636719	1048.577514648438	78.92787933349607	407.5370788574219	1043.015502929688	151.4998626708984	-152.9045562744141	642.5825805664062	329.9700317382812	-150.4634399414063	679.14990234375	444.8120117187499	28.43345069885251	947.5408325195312	198.2627868652343	15.01618194580077	936.961181640625	71.20990753173822	-254.0214385986329	347.1022644042969	429.7541809082031	-225.9240112304688	344.8731079101562	353.3436889648438	-105.3199920654297	214.5660705566407	394.2592468261719	-321.8275756835938	331.8851928710938	392.2208251953124	69.68365478515624	535.4459838867188	140.8547973632812	-94.2255096435547	620.2495727539062	168.4367980957031	-110.210075378418	605.7338256835938	91.00592803955072	-183.0132141113282	559.8350219726562	133.8307189941406	
747	6.216666666666667	156.95166015625	1506.5859375	293.6112365722655	176.4360961914062	1499.437866210938	166.5359191894531	19.9339504241943	1568.087524414062	275.1117553710936	32.13351821899413	1562.156860351562	144.3460388183593	3.032788276672325	1389.283569335938	313.1726989746093	-12.48835563659669	1375.33056640625	96.47815704345695	21.18635749816892	1332.39404296875	216.9356689453124	-32.4717712402344	1223.108642578125	225.0121917724609	-212.2936248779297	1385.030517578125	237.3887481689452	-417.4298095703126	1127.472290039062	334.5704345703124	-431.3953857421875	1121.814819335938	215.2032775878905	-241.7231445312501	1079.454833984375	371.596466064453	-262.3146362304688	1093.00048828125	147.6457061767577	139.9725341796874	1177.955078125	468.7149658203124	318.2779846191406	1046.318481445312	404.2643127441406	338.5538940429687	1058.677124023438	464.0552062988281	420.7631530761718	1019.656433105469	400.3410949707031	97.25016784667963	1137.473022460938	436.2175903320312	94.53074645996092	1121.49755859375	63.15740203857416	144.7511596679688	1149.999877929688	31.32398605346674	321.0603637695312	1044.669555664062	143.2978363037109	343.7099609375	1048.741088867188	79.0083084106445	407.2887268066406	1043.359130859375	151.58935546875	-150.2634582519532	649.3421630859375	330.4140319824218	-144.7324523925782	685.6663208007812	445.2361755371093	27.02435493469236	939.9696655273438	197.8290710449218	13.7167682647705	929.0536499023438	71.14948272705072	-263.9917907714844	359.1629943847656	429.7330627441406	-236.2834014892579	356.2766723632812	353.0730285644531	-119.4713745117188	222.5299224853516	393.6587829589844	-332.7099914550782	345.983154296875	392.2735900878906	83.12805938720702	527.5148315429688	141.1432037353515	-83.65350341796876	607.5849609375	167.5318450927734	-98.53089904785158	592.798095703125	89.97341918945307	-169.9177703857422	544.9561767578125	132.8839569091796	
748	6.225	157.3901824951172	1504.756103515625	293.7162170410155	176.4195098876953	1497.755126953125	166.5265655517578	21.10749816894528	1568.140625	275.619903564453	32.70485687255858	1561.9306640625	144.9399871826171	2.189311504363975	1389.195434570312	313.3527526855468	-12.7987689971924	1375.512329101562	96.84358215332023	21.12516021728513	1332.164916992188	217.3569030761718	-33.44173431396487	1223.140380859375	225.3824615478515	-212.8692016601563	1385.197143554688	237.1810150146483	-418.7353515625001	1127.599365234375	334.049346923828	-432.4057006835938	1121.754760742188	214.6962432861327	-242.9653472900391	1080.35986328125	371.554962158203	-262.5873718261719	1091.66796875	147.179473876953	139.254898071289	1177.814819335938	468.7363586425781	317.8363647460937	1046.321411132812	404.3524780273438	338.0788269042968	1058.715576171875	464.1688537597656	420.4389648437499	1019.908020019531	400.5645141601562	96.53886413574213	1137.315063476562	436.2603454589843	94.06850433349608	1121.97314453125	63.08836364746088	144.3971405029297	1150.37109375	31.51253509521479	320.6991577148438	1044.789428710938	143.4064483642578	343.2772216796875	1048.860107421875	79.12848663330075	407.4951782226562	1044.017456054688	152.0924377441406	-144.9076843261719	656.6542358398438	331.2801513671874	-138.1846923828126	692.8045043945312	445.7189941406249	25.56015014648435	930.7896728515625	197.1998291015624	11.64983081817626	918.1929321289062	70.77881622314447	-272.8468933105469	372.6170959472656	429.8350219726562	-245.7837371826172	369.0453491210938	352.8792114257812	-132.5860443115235	232.332015991211	393.5455932617188	-342.4649353027344	361.4429016113281	392.4371337890624	95.41909027099608	516.9269409179688	141.435806274414	-72.25441741943361	593.5362548828125	165.9469757080078	-86.8342971801758	578.4028930664062	88.92705535888668	-156.717041015625	529.2257690429688	131.977798461914	
749	6.233333333333333	157.8018035888672	1502.779663085938	293.8605346679686	176.2370147705078	1495.972900390625	166.6838073730468	21.90069198608395	1567.627319335938	276.5062866210936	33.07914733886717	1561.652221679688	145.7370147705077	1.165752649307213	1389.097045898438	313.6961975097656	-13.22122478485109	1375.597900390625	97.37498474121085	20.57898521423337	1331.833129882812	217.8653869628905	-34.82878494262698	1223.04736328125	225.8240814208984	-213.6186981201172	1385.089233398438	237.0054473876952	-419.9606628417969	1127.367065429688	333.5450744628905	-433.34912109375	1121.196044921875	214.2577972412108	-244.2486572265626	1080.880126953125	371.4608459472655	-262.9087524414062	1090.253173828125	146.8411865234374	138.5306091308593	1177.596069335938	468.7491760253906	317.4365539550781	1046.314331054688	404.399658203125	337.6044006347656	1058.714477539062	464.2551879882812	420.1820373535156	1020.14990234375	400.7149963378906	95.88386535644526	1137.082397460938	436.2969055175781	93.6347198486328	1122.345703125	63.24763488769526	144.0184020996094	1150.765502929688	31.81989669799799	320.4137878417969	1044.837524414062	143.5115509033203	342.9715881347656	1048.935424804688	79.23578643798825	407.2355041503906	1044.187133789062	152.1640472412109	-136.9481353759766	664.5231323242188	330.9537048339843	-131.1381225585938	700.3937377929688	446.3583679199218	23.70543861389158	919.8333740234375	196.1490936279296	9.423314094543448	907.7853393554688	71.37823486328119	-280.5966186523438	387.1854553222656	430.0176696777343	-253.7556610107422	383.0812377929688	352.7790527343749	-144.4195861816407	243.6901550292969	393.4424133300781	-351.0340270996094	378.0172729492188	392.6833801269531	106.1722717285156	504.3966674804688	140.7328491210937	-62.37908172607424	578.306640625	164.8048553466797	-75.87046051025392	562.9559936523438	87.79312133789058	-145.5173950195313	512.9656372070312	131.0741424560546	
750	6.241666666666666	157.8095550537109	1500.741821289062	294.3226013183593	175.9264526367187	1494.183715820312	166.9931488037109	22.42823219299313	1566.548950195312	277.6623229980468	33.29420471191404	1561.282592773438	146.6664123535155	0.1072869598865124	1388.995849609375	314.2036743164062	-13.75494194030763	1375.550659179688	98.00877380371085	19.57670593261716	1331.362182617188	218.4831542968749	-36.2193298339844	1222.850463867188	226.2825927734374	-214.4790191650391	1384.775390625	236.9504547119139	-421.0937805175782	1126.751342773438	333.1262207031249	-434.1537780761719	1120.119506835938	213.8019409179686	-245.4681854248047	1081.201416015625	371.3755798339843	-263.2383117675781	1088.88818359375	146.6004486083984	137.8785552978515	1177.290893554688	468.8312988281249	317.1310424804687	1046.323852539062	404.4261779785156	337.2395019531249	1058.716918945312	464.3364562988281	420.0100708007812	1020.308349609375	400.781982421875	95.28163909912104	1136.757446289062	436.3309631347656	93.32840728759764	1122.611938476562	63.62498092651362	143.6951446533203	1151.092529296875	32.20763778686518	320.2166748046875	1044.856811523438	143.6248626708984	342.7181396484375	1049.005981445312	79.35455322265622	407.0823974609375	1044.272216796875	152.1895294189453	-132.8238525390625	673.009765625	331.2780456542968	-123.6780471801758	708.51953125	446.9612426757812	21.5128536224365	907.2216186523438	195.1826629638671	6.655231475830069	894.9552612304688	70.74291992187494	-287.1364440917969	402.8095092773438	430.3282775878906	-260.7991638183594	398.2486572265625	352.8460998535156	-154.9040832519532	256.3990783691406	393.3148498535156	-359.2263793945313	396.0191955566406	393.5018005371093	118.6301498413086	489.1846618652344	141.5814666748047	-49.56176376342776	562.2750244140625	164.0523834228515	-65.98860931396486	546.3789672851562	86.94189453124996	-134.7237548828125	496.2643127441406	130.1647796630859	
